{"title":"Pacific Rim 2013 READNFO CAM XViD UNiQUE ","uid":8690528,"size":1527427161,"categoryP":"video","categoryS":"movies","magnet":"?xt=urn:btih:55fd131233c2703052eeae740c960afcf68000c6&amp;dn=Pacific+Rim+2013+READNFO+CAM+XViD+UNiQUE+&amp;tr=udp%3A%2F%2Ftracker.openbittorrent.com%3A80&amp;tr=udp%3A%2F%2Fopen.demonii.com%3A1337&amp;tr=udp%3A%2F%2Ftracker.coppersurfer.tk%3A6969&amp;tr=udp%3A%2F%2Fexodus.desync.com%3A6969","seeders":1,"leechers":0,"uploader":"srkfan","files":3,"time":1373878830,"description":" &lt;a href=&quot;http://impawards.com/2013/posters/pacific_rim_ver9.jpg&quot; rel=&quot;nofollow&quot; target=&quot;_NEW&quot;&gt;http://impawards.com/2013/posters/pacific_rim_ver9.jpg&lt;/a&gt;\n\nFormat                                   : AVI\nFormat/Info                              : Audio Video Interleave\nFile size                                : 1.41 GiB\nDuration                                 : 2h 2mn\nOverall bit rate                         : 1 652 Kbps\nWriting application                      : VirtualDubMod 1.5.10.2 (build 2540/release)\nWriting library                          : VirtualDubMod build 2540/release\n\nVideo\nID                                       : 0\nFormat                                   : MPEG-4 Visual\nFormat profile                           : Advanced Simple@L5\nFormat settings, BVOP                    : 2\nFormat settings, QPel                    : No\nFormat settings, GMC                     : No warppoints\nFormat settings, Matrix                  : Default (H.263)\nMuxing mode                              : Packed bitstream\nCodec ID                                 : XVID\nCodec ID/Hint                            : XviD\nDuration                                 : 2h 2mn\nBit rate                                 : 1 513 Kbps\nWidth                                    : 720 pixels\nHeight                                   : 368 pixels\nDisplay aspect ratio                     : 1.957\nFrame rate                               : 29.383 fps\nColor space                              : YUV\nChroma subsampling                       : 4:2:0\nBit depth                                : 8 bits\nScan type                                : Progressive\nCompression mode                         : Lossy\nBits/(Pixel*Frame)                       : 0.194\nStream size                              : 1.29 GiB (92%)\nWriting library                          : XviD 64\n\nAudio\nID                                       : 1\nFormat                                   : MPEG Audio\nFormat version                           : Version 1\nFormat profile                           : Layer 3\nMode                                     : Joint stereo\nMode extension                           : MS Stereo\nCodec ID                                 : 55\nCodec ID/Hint                            : MP3\nDuration                                 : 2h 2mn\nBit rate mode                            : Constant\nBit rate                                 : 128 Kbps\nChannel(s)                               : 2 channels\nSampling rate                            : 48.0 KHz\nCompression mode                         : Lossy\nStream size                              : 112 MiB (8%)\nAlignment                                : Split accross interleaves\nInterleave, duration                     : 34 ms (1.00 video frame)\nInterleave, preload duration             : 500 ms\nWriting library                          : LAME\n &lt;a href=&quot;\nhttp://img545.imageshack.us/img545/4008/jngj.png&quot; rel=&quot;nofollow&quot; target=&quot;_NEW&quot;&gt;\nhttp://img545.imageshack.us/img545/4008/jngj.png&lt;/a&gt; &lt;a href=&quot;\nhttp://img856.imageshack.us/img856/7503/mpzz.png&quot; rel=&quot;nofollow&quot; target=&quot;_NEW&quot;&gt;\nhttp://img856.imageshack.us/img856/7503/mpzz.png&lt;/a&gt; &lt;a href=&quot;\nhttp://img90.imageshack.us/img90/3899/f7b.png&quot; rel=&quot;nofollow&quot; target=&quot;_NEW&quot;&gt;\nhttp://img90.imageshack.us/img90/3899/f7b.png&lt;/a&gt; &lt;a href=&quot;\nhttp://img838.imageshack.us/img838/4947/fj3x.png&quot; rel=&quot;nofollow&quot; target=&quot;_NEW&quot;&gt;\nhttp://img838.imageshack.us/img838/4947/fj3x.png&lt;/a&gt;","torrent":{"xt":"urn:btih:55fd131233c2703052eeae740c960afcf68000c6","amp;dn":"Pacific+Rim+2013+READNFO+CAM+XViD+UNiQUE+","amp;tr":["udp%3A%2F%2Ftracker.openbittorrent.com%3A80","udp%3A%2F%2Fopen.demonii.com%3A1337","udp%3A%2F%2Ftracker.coppersurfer.tk%3A6969","udp%3A%2F%2Fexodus.desync.com%3A6969"],"infoHash":"55fd131233c2703052eeae740c960afcf68000c6","infoHashBuffer":{"type":"Buffer","data":[85,253,19,18,51,194,112,48,82,238,174,116,12,150,10,252,246,128,0,198]},"announce":[],"urlList":[]}}